<?xml version="1.0" encoding="UTF-8" standalone="no"?>
<!-- Created with Inkscape (http://www.inkscape.org/) -->

<svg
   width="57.812634mm"
   height="34.257401mm"
   viewBox="0 0 57.812634 34.257401"
   version="1.1"
   id="svg1"
   inkscape:version="1.3 (0e150ed6c4, 2023-07-21)"
   sodipodi:docname="drawing.svg"
   xmlns:inkscape="http://www.inkscape.org/namespaces/inkscape"
   xmlns:sodipodi="http://sodipodi.sourceforge.net/DTD/sodipodi-0.dtd"
   xmlns="http://www.w3.org/2000/svg"
   xmlns:svg="http://www.w3.org/2000/svg">
  <sodipodi:namedview
     id="namedview1"
     pagecolor="#ffffff"
     bordercolor="#000000"
     borderopacity="0.25"
     inkscape:showpageshadow="2"
     inkscape:pageopacity="0.0"
     inkscape:pagecheckerboard="0"
     inkscape:deskcolor="#d1d1d1"
     inkscape:document-units="mm"
     showguides="true"
     inkscape:zoom="2"
     inkscape:cx="175"
     inkscape:cy="464.25"
     inkscape:window-width="1920"
     inkscape:window-height="1009"
     inkscape:window-x="2552"
     inkscape:window-y="-8"
     inkscape:window-maximized="1"
     inkscape:current-layer="layer1" />
  <defs
     id="defs1">
    <inkscape:path-effect
       effect="powerclip"
       id="path-effect289"
       is_visible="true"
       lpeversion="1"
       inverse="true"
       flatten="false"
       hide_clip="false"
       message="Use fill-rule evenodd on &lt;b&gt;fill and stroke&lt;/b&gt; dialog if no flatten result after convert clip to paths." />
    <inkscape:path-effect
       effect="powerclip"
       id="path-effect288"
       is_visible="true"
       lpeversion="1"
       inverse="true"
       flatten="false"
       hide_clip="false"
       message="Use fill-rule evenodd on &lt;b&gt;fill and stroke&lt;/b&gt; dialog if no flatten result after convert clip to paths." />
    <inkscape:path-effect
       effect="powerclip"
       id="path-effect287"
       is_visible="true"
       lpeversion="1"
       inverse="true"
       flatten="false"
       hide_clip="false"
       message="Use fill-rule evenodd on &lt;b&gt;fill and stroke&lt;/b&gt; dialog if no flatten result after convert clip to paths." />
    <inkscape:path-effect
       effect="powerclip"
       id="path-effect286"
       is_visible="true"
       lpeversion="1"
       inverse="true"
       flatten="false"
       hide_clip="false"
       message="Use fill-rule evenodd on &lt;b&gt;fill and stroke&lt;/b&gt; dialog if no flatten result after convert clip to paths." />
    <inkscape:path-effect
       effect="powerclip"
       id="path-effect285"
       is_visible="true"
       lpeversion="1"
       inverse="true"
       flatten="false"
       hide_clip="false"
       message="Use fill-rule evenodd on &lt;b&gt;fill and stroke&lt;/b&gt; dialog if no flatten result after convert clip to paths." />
    <inkscape:path-effect
       effect="powerclip"
       id="path-effect284"
       is_visible="true"
       lpeversion="1"
       inverse="true"
       flatten="false"
       hide_clip="false"
       message="Use fill-rule evenodd on &lt;b&gt;fill and stroke&lt;/b&gt; dialog if no flatten result after convert clip to paths." />
    <inkscape:path-effect
       effect="bspline"
       id="path-effect263"
       is_visible="true"
       lpeversion="1.3"
       weight="33.333333"
       steps="2"
       helper_size="0"
       apply_no_weight="true"
       apply_with_weight="true"
       only_selected="false"
       uniform="false" />
    <inkscape:path-effect
       effect="powerclip"
       id="path-effect192"
       is_visible="true"
       lpeversion="1"
       inverse="true"
       flatten="false"
       hide_clip="false"
       message="Use fill-rule evenodd on &lt;b&gt;fill and stroke&lt;/b&gt; dialog if no flatten result after convert clip to paths." />
    <inkscape:path-effect
       effect="powerclip"
       id="path-effect191"
       is_visible="true"
       lpeversion="1"
       inverse="true"
       flatten="false"
       hide_clip="false"
       message="Use fill-rule evenodd on &lt;b&gt;fill and stroke&lt;/b&gt; dialog if no flatten result after convert clip to paths." />
    <clipPath
       clipPathUnits="userSpaceOnUse"
       id="clipPath279">
      <path
         id="path279"
         style="font-variation-settings:normal;display:none;vector-effect:none;fill:#424f54;fill-opacity:1;stroke:#000000;stroke-width:0.264583;stroke-linecap:butt;stroke-linejoin:miter;stroke-miterlimit:4;stroke-dasharray:none;stroke-dashoffset:0;stroke-opacity:1;-inkscape-stroke:none;stop-color:#000000"
         d="m 76.913264,138.18 3.835318,-2.80633 1.234633,1.68733 -3.775136,2.76229 -1.23463,-1.68733 z m 2.83328,16.07461 3.835318,-2.80633 1.234633,1.68733 -3.775136,2.76229 -1.23463,-1.68733 z" />
      <path
         id="lpe_path-effect284"
         style="font-variation-settings:normal;display:inline;vector-effect:none;fill:#424f54;fill-opacity:1;stroke:#000000;stroke-width:0.264583;stroke-linecap:butt;stroke-linejoin:miter;stroke-miterlimit:4;stroke-dasharray:none;stroke-dashoffset:0;stroke-opacity:1;-inkscape-stroke:none;stop-color:#000000"
         class="powerclip"
         d="M 67.753657,115.13591 H 78.452319 V 125.579 H 67.753657 Z m 9.159607,23.04409 0.06019,-0.044 1.23463,1.68733 3.775136,-2.76229 -1.234633,-1.68733 z m 2.83328,16.07461 0.06019,-0.044 1.23463,1.68733 3.775136,-2.76229 -1.234633,-1.68733 z" />
    </clipPath>
    <clipPath
       clipPathUnits="userSpaceOnUse"
       id="clipPath280">
      <path
         id="path280"
         style="font-variation-settings:normal;display:none;vector-effect:none;fill:#424f54;fill-opacity:1;stroke:#000000;stroke-width:0.264583;stroke-linecap:butt;stroke-linejoin:miter;stroke-miterlimit:4;stroke-dasharray:none;stroke-dashoffset:0;stroke-opacity:1;-inkscape-stroke:none;stop-color:#000000"
         d="m 76.913264,138.18 3.835318,-2.80633 1.234633,1.68733 -3.775136,2.76229 -1.23463,-1.68733 z m 2.83328,16.07461 3.835318,-2.80633 1.234633,1.68733 -3.775136,2.76229 -1.23463,-1.68733 z" />
      <path
         id="lpe_path-effect285"
         style="font-variation-settings:normal;display:inline;vector-effect:none;fill:#424f54;fill-opacity:1;stroke:#000000;stroke-width:0.264583;stroke-linecap:butt;stroke-linejoin:miter;stroke-miterlimit:4;stroke-dasharray:none;stroke-dashoffset:0;stroke-opacity:1;-inkscape-stroke:none;stop-color:#000000"
         class="powerclip"
         d="m 67.37413,115.13575 h 13.13042 v 20.39911 H 67.37413 Z m 9.539134,23.04425 0.06019,-0.044 1.23463,1.68733 3.775136,-2.76229 -1.234633,-1.68733 z m 2.83328,16.07461 0.06019,-0.044 1.23463,1.68733 3.775136,-2.76229 -1.234633,-1.68733 z" />
    </clipPath>
    <clipPath
       clipPathUnits="userSpaceOnUse"
       id="clipPath281">
      <path
         id="path281"
         style="font-variation-settings:normal;display:none;vector-effect:none;fill:#424f54;fill-opacity:1;stroke:#000000;stroke-width:0.264583;stroke-linecap:butt;stroke-linejoin:miter;stroke-miterlimit:4;stroke-dasharray:none;stroke-dashoffset:0;stroke-opacity:1;-inkscape-stroke:none;stop-color:#000000"
         d="m 76.913264,138.18 3.835318,-2.80633 1.234633,1.68733 -3.775136,2.76229 -1.23463,-1.68733 z m 2.83328,16.07461 3.835318,-2.80633 1.234633,1.68733 -3.775136,2.76229 -1.23463,-1.68733 z" />
      <path
         id="lpe_path-effect286"
         style="font-variation-settings:normal;display:inline;vector-effect:none;fill:#424f54;fill-opacity:1;stroke:#000000;stroke-width:0.264583;stroke-linecap:butt;stroke-linejoin:miter;stroke-miterlimit:4;stroke-dasharray:none;stroke-dashoffset:0;stroke-opacity:1;-inkscape-stroke:none;stop-color:#000000"
         class="powerclip"
         d="M 49.10005,115.08571 H 59.798712 V 125.5288 H 49.10005 Z m 27.813214,23.09429 0.06019,-0.044 1.23463,1.68733 3.775136,-2.76229 -1.234633,-1.68733 z m 2.83328,16.07461 0.06019,-0.044 1.23463,1.68733 3.775136,-2.76229 -1.234633,-1.68733 z" />
    </clipPath>
    <clipPath
       clipPathUnits="userSpaceOnUse"
       id="clipPath282">
      <path
         id="path282"
         style="font-variation-settings:normal;display:none;vector-effect:none;fill:#424f54;fill-opacity:1;stroke:#000000;stroke-width:0.264583;stroke-linecap:butt;stroke-linejoin:miter;stroke-miterlimit:4;stroke-dasharray:none;stroke-dashoffset:0;stroke-opacity:1;-inkscape-stroke:none;stop-color:#000000"
         d="m 76.913264,137.99291 3.835318,-2.80633 1.234633,1.68733 -3.775136,2.76229 -1.23463,-1.68733 z m 2.83328,16.07461 3.835318,-2.80633 1.234633,1.68733 -3.775136,2.76229 -1.23463,-1.68733 z" />
      <path
         id="lpe_path-effect287"
         style="font-variation-settings:normal;display:inline;vector-effect:none;fill:#424f54;fill-opacity:1;stroke:#000000;stroke-width:0.264583;stroke-linecap:butt;stroke-linejoin:miter;stroke-miterlimit:4;stroke-dasharray:none;stroke-dashoffset:0;stroke-opacity:1;-inkscape-stroke:none;stop-color:#000000"
         class="powerclip"
         d="m 47.047435,114.8985 h 13.131024 v 23.24583 H 47.047435 Z m 29.865829,23.09441 0.06019,-0.044 1.23463,1.68733 3.775136,-2.76229 -1.234633,-1.68733 z m 2.83328,16.07461 0.06019,-0.044 1.23463,1.68733 3.775136,-2.76229 -1.234633,-1.68733 z" />
    </clipPath>
    <clipPath
       clipPathUnits="userSpaceOnUse"
       id="clipPath283">
      <path
         id="path283"
         style="font-variation-settings:normal;display:none;vector-effect:none;fill:#424f54;fill-opacity:1;stroke:#000000;stroke-width:0.264583;stroke-linecap:butt;stroke-linejoin:miter;stroke-miterlimit:4;stroke-dasharray:none;stroke-dashoffset:0;stroke-opacity:1;-inkscape-stroke:none;stop-color:#000000"
         d="m 76.913264,138.18 3.835318,-2.80633 1.234633,1.68733 -3.775136,2.76229 -1.23463,-1.68733 z m 2.83328,16.07461 3.835318,-2.80633 1.234633,1.68733 -3.775136,2.76229 -1.23463,-1.68733 z" />
      <path
         id="lpe_path-effect288"
         style="font-variation-settings:normal;display:inline;vector-effect:none;fill:#424f54;fill-opacity:1;stroke:#000000;stroke-width:0.264583;stroke-linecap:butt;stroke-linejoin:miter;stroke-miterlimit:4;stroke-dasharray:none;stroke-dashoffset:0;stroke-opacity:1;-inkscape-stroke:none;stop-color:#000000"
         class="powerclip"
         d="M 52.897124,137.17356 H 101.2568 v 22.16943 H 52.897124 Z m 24.01614,1.00644 0.06019,-0.044 1.23463,1.68733 3.775136,-2.76229 -1.234633,-1.68733 z m 2.83328,16.07461 0.06019,-0.044 1.23463,1.68733 3.775136,-2.76229 -1.234633,-1.68733 z" />
    </clipPath>
    <clipPath
       clipPathUnits="userSpaceOnUse"
       id="clipPath284">
      <path
         id="path284"
         style="font-variation-settings:normal;display:none;vector-effect:none;fill:#424f54;fill-opacity:1;stroke:#000000;stroke-width:0.264583;stroke-linecap:butt;stroke-linejoin:miter;stroke-miterlimit:4;stroke-dasharray:none;stroke-dashoffset:0;stroke-opacity:1;-inkscape-stroke:none;stop-color:#000000"
         d="m 76.913264,138.18 3.835318,-2.80633 1.234633,1.68733 -3.775136,2.76229 -1.23463,-1.68733 z m 2.83328,16.07461 3.835318,-2.80633 1.234633,1.68733 -3.775136,2.76229 -1.23463,-1.68733 z" />
      <path
         id="lpe_path-effect289"
         style="font-variation-settings:normal;display:inline;vector-effect:none;fill:#424f54;fill-opacity:1;stroke:#000000;stroke-width:0.264583;stroke-linecap:butt;stroke-linejoin:miter;stroke-miterlimit:4;stroke-dasharray:none;stroke-dashoffset:0;stroke-opacity:1;-inkscape-stroke:none;stop-color:#000000"
         class="powerclip"
         d="m 33.444165,116.42411 h 60.167997 v 31.20074 H 33.444165 Z m 43.469099,21.75589 0.06019,-0.044 1.23463,1.68733 3.775136,-2.76229 -1.234633,-1.68733 z m 2.83328,16.07461 0.06019,-0.044 1.23463,1.68733 3.775136,-2.76229 -1.234633,-1.68733 z" />
    </clipPath>
  </defs>
  <g
     inkscape:label="Layer 1"
     inkscape:groupmode="layer"
     id="layer1"
     style="display:inline"
     transform="translate(-1.1820883,-0.50505458)">
    <g
       id="g1"
       transform="translate(6.2177083,-11.509375)">
      <path
         id="text35"
         clip-path="url(#clipPath284)"
         style="font-style:normal;font-variant:normal;font-weight:normal;font-stretch:normal;font-size:22.5778px;font-family:Stem-Bold;-inkscape-font-specification:'Stem-Bold, Normal';font-variant-ligatures:normal;font-variant-caps:normal;font-variant-numeric:normal;font-variant-east-asian:normal;display:inline;fill:#00ff00;fill-opacity:1;stroke-width:0.264583"
         d="m 77.27797,121.42411 v 16.48168 h 3.273702 v -4.15426 l 0.406694,-0.27079 3.499528,4.42505 h 4.154268 l -5.192964,-6.6151 5.034834,-5.12526 h -4.199226 l -3.703134,3.97391 v -8.71523 z m -19.665466,4.49275 c -1.941689,0 -3.431593,0.58729 -4.492749,1.71618 -1.083733,1.15146 -1.603003,2.61902 -1.603003,4.38009 0,1.85138 0.564351,3.31874 1.738395,4.42505 1.151467,1.10631 2.68681,1.64848 4.605921,1.64848 2.122311,0 3.793217,-0.76773 5.057572,-2.34818 l -1.964221,-1.98695 c -0.338667,0.4064 -0.790352,0.72248 -1.332218,0.94826 -0.564445,0.22578 -1.129153,0.33848 -1.716175,0.33848 -1.670755,0 -2.663931,-0.60911 -2.957442,-1.82831 h 8.082711 c 0.112889,-0.76765 0.180867,-1.39982 0.180867,-1.89653 0,-1.60302 -0.542204,-2.9128 -1.580782,-3.90622 -1.061155,-0.99342 -2.393276,-1.49035 -4.018876,-1.49035 z m 12.598714,0 c -1.941689,0 -3.43211,0.58729 -4.493266,1.71618 -1.083733,1.15146 -1.603002,2.61902 -1.603002,4.38009 0,1.85138 0.564867,3.31874 1.738911,4.42505 1.151467,1.10631 2.686293,1.64848 4.605404,1.64848 2.122311,0 3.793217,-0.76773 5.057573,-2.34818 l -1.964222,-1.98695 c -0.338666,0.4064 -0.790351,0.72248 -1.332218,0.94826 -0.564445,0.22578 -1.128635,0.33848 -1.715658,0.33848 -1.670755,0 -2.664447,-0.60911 -2.957959,-1.82831 h 8.083228 c 0.112889,-0.76765 0.180351,-1.39982 0.180351,-1.89653 0,-1.60302 -0.541688,-2.9128 -1.580266,-3.90622 -1.061155,-0.99342 -2.393276,-1.49035 -4.018876,-1.49035 z m -26.077478,0.0904 c -1.535289,0 -2.867249,0.56474 -3.996138,1.64847 -1.128889,1.08374 -1.693437,2.55114 -1.693437,4.35736 0,1.94169 0.519467,3.45417 1.558044,4.49275 1.038578,1.06116 2.41562,1.58078 4.131531,1.58078 1.264356,0 2.144988,-0.33894 2.641699,-1.06143 v 0.51935 c 0,1.35466 -0.880472,2.03191 -2.618961,2.03191 -1.038578,0 -1.806348,-0.45148 -2.280481,-1.37717 l -2.867525,1.19682 c 0.383822,1.03858 1.038692,1.82869 1.986959,2.39314 0.948266,0.56444 2.099545,0.83561 3.47679,0.83561 1.761067,0 3.138465,-0.47439 4.10931,-1.42266 0.970844,-0.94826 1.46761,-2.39328 1.46761,-4.31239 v -10.72441 h -3.273702 v 0.47439 c -0.6096,-0.4064 -1.490232,-0.63252 -2.641699,-0.63252 z m 13.366109,2.84478 c 1.264356,0 2.054507,0.51931 2.32544,1.53531 H 55.01628 c 0.4064,-1.016 1.219214,-1.53531 2.483569,-1.53531 z m 12.598198,0 c 1.264355,0 2.055023,0.51931 2.325956,1.53531 h -4.809525 c 0.4064,-1.016 1.219213,-1.53531 2.483569,-1.53531 z m -25.422221,0.20309 c 0.970844,0 1.670636,0.2712 2.099613,0.76791 v 3.90571 c -0.158044,0.38382 -0.428888,0.69991 -0.790132,0.94826 -0.361245,0.24836 -0.790549,0.36122 -1.28726,0.36122 -0.903111,0 -1.62564,-0.24811 -2.122351,-0.7674 -0.496711,-0.49671 -0.744658,-1.24194 -0.744658,-2.21278 0,-0.94827 0.248266,-1.69298 0.790133,-2.21227 0.541867,-0.51929 1.219277,-0.79065 2.054655,-0.79065 z"
         inkscape:label="text35"
         inkscape:original-d="m 77.27797,121.42411 v 16.48168 h 3.273702 v -4.15426 l 0.406694,-0.27079 3.499528,4.42505 h 4.154268 l -5.192964,-6.6151 5.034834,-5.12526 h -4.199226 l -3.703134,3.97391 v -8.71523 z m -19.665466,4.49275 c -1.941689,0 -3.431593,0.58729 -4.492749,1.71618 -1.083733,1.15146 -1.603003,2.61902 -1.603003,4.38009 0,1.85138 0.564351,3.31874 1.738395,4.42505 1.151467,1.10631 2.68681,1.64848 4.605921,1.64848 2.122311,0 3.793217,-0.76773 5.057572,-2.34818 l -1.964221,-1.98695 c -0.338667,0.4064 -0.790352,0.72248 -1.332218,0.94826 -0.564445,0.22578 -1.129153,0.33848 -1.716175,0.33848 -1.670755,0 -2.663931,-0.60911 -2.957442,-1.82831 h 8.082711 c 0.112889,-0.76765 0.180867,-1.39982 0.180867,-1.89653 0,-1.60302 -0.542204,-2.9128 -1.580782,-3.90622 -1.061155,-0.99342 -2.393276,-1.49035 -4.018876,-1.49035 z m 12.598714,0 c -1.941689,0 -3.43211,0.58729 -4.493266,1.71618 -1.083733,1.15146 -1.603002,2.61902 -1.603002,4.38009 0,1.85138 0.564867,3.31874 1.738911,4.42505 1.151467,1.10631 2.686293,1.64848 4.605404,1.64848 2.122311,0 3.793217,-0.76773 5.057573,-2.34818 l -1.964222,-1.98695 c -0.338666,0.4064 -0.790351,0.72248 -1.332218,0.94826 -0.564445,0.22578 -1.128635,0.33848 -1.715658,0.33848 -1.670755,0 -2.664447,-0.60911 -2.957959,-1.82831 h 8.083228 c 0.112889,-0.76765 0.180351,-1.39982 0.180351,-1.89653 0,-1.60302 -0.541688,-2.9128 -1.580266,-3.90622 -1.061155,-0.99342 -2.393276,-1.49035 -4.018876,-1.49035 z m -26.077478,0.0904 c -1.535289,0 -2.867249,0.56474 -3.996138,1.64847 -1.128889,1.08374 -1.693437,2.55114 -1.693437,4.35736 0,1.94169 0.519467,3.45417 1.558044,4.49275 1.038578,1.06116 2.41562,1.58078 4.131531,1.58078 1.264356,0 2.144988,-0.33894 2.641699,-1.06143 v 0.51935 c 0,1.35466 -0.880472,2.03191 -2.618961,2.03191 -1.038578,0 -1.806348,-0.45148 -2.280481,-1.37717 l -2.867525,1.19682 c 0.383822,1.03858 1.038692,1.82869 1.986959,2.39314 0.948266,0.56444 2.099545,0.83561 3.47679,0.83561 1.761067,0 3.138465,-0.47439 4.10931,-1.42266 0.970844,-0.94826 1.46761,-2.39328 1.46761,-4.31239 v -10.72441 h -3.273702 v 0.47439 c -0.6096,-0.4064 -1.490232,-0.63252 -2.641699,-0.63252 z m 13.366109,2.84478 c 1.264356,0 2.054507,0.51931 2.32544,1.53531 H 55.01628 c 0.4064,-1.016 1.219214,-1.53531 2.483569,-1.53531 z m 12.598198,0 c 1.264355,0 2.055023,0.51931 2.325956,1.53531 h -4.809525 c 0.4064,-1.016 1.219213,-1.53531 2.483569,-1.53531 z m -25.422221,0.20309 c 0.970844,0 1.670636,0.2712 2.099613,0.76791 v 3.90571 c -0.158044,0.38382 -0.428888,0.69991 -0.790132,0.94826 -0.361245,0.24836 -0.790549,0.36122 -1.28726,0.36122 -0.903111,0 -1.62564,-0.24811 -2.122351,-0.7674 -0.496711,-0.49671 -0.744658,-1.24194 -0.744658,-2.21278 0,-0.94827 0.248266,-1.69298 0.790133,-2.21227 0.541867,-0.51929 1.219277,-0.79065 2.054655,-0.79065 z"
         inkscape:path-effect="#path-effect192;#path-effect289"
         transform="translate(-43.479785,-108.07116)" />
      <path
         d="m 57.897124,148.26956 c 0,1.76107 0.587023,3.22863 1.806224,4.35752 1.196624,1.15147 2.709336,1.71591 4.538138,1.71591 1.85138,0 3.38667,-0.56444 4.583294,-1.71591 1.196623,-1.12889 1.806224,-2.59645 1.806224,-4.35752 0,-1.76107 -0.609601,-3.22862 -1.806224,-4.38009 -1.196624,-1.12889 -2.731914,-1.71591 -4.583294,-1.71591 -1.873957,0 -3.409248,0.58702 -4.583293,1.71591 -1.174046,1.15147 -1.761069,2.61902 -1.761069,4.38009 z m 3.38667,0 c 0,-0.94826 0.270934,-1.69333 0.835379,-2.2352 0.541867,-0.54187 1.264357,-0.8128 2.122313,-0.8128 0.857957,0 1.557868,0.29351 2.144891,0.83538 0.564445,0.54187 0.857957,1.28693 0.857957,2.21262 0,0.94827 -0.293512,1.67076 -0.835379,2.21263 -0.541867,0.54186 -1.264357,0.8128 -2.167469,0.8128 -0.880534,0 -1.603024,-0.27094 -2.144891,-0.85796 -0.541867,-0.56444 -0.812801,-1.28693 -0.812801,-2.16747 z m 10.814769,5.89281 h 3.273781 v -7.36036 c 0.4064,-1.03858 1.174045,-1.55787 2.25778,-1.55787 0.790223,0 1.377246,0.2032 1.73849,0.58702 0.361245,0.38382 0.564445,1.03858 0.564445,1.94169 v 6.38952 h 3.273781 v -6.59272 c 0,-1.85138 -0.4064,-3.20605 -1.174045,-4.064 -0.767645,-0.85796 -1.919113,-1.30952 -3.454404,-1.30952 -1.557868,0 -2.619025,0.36125 -3.206047,1.06116 v -0.83538 h -3.273781 z m 21.900459,-4.15432 c -0.338667,0.4064 -0.790223,0.72249 -1.33209,0.94827 -0.564445,0.22578 -1.12889,0.33867 -1.715913,0.33867 -1.670757,0 -2.664181,-0.6096 -2.957692,-1.8288 h 8.082853 c 0.112889,-0.76765 0.180622,-1.39983 0.180622,-1.89654 0,-1.60302 -0.541867,-2.91254 -1.580446,-3.90596 -1.061157,-0.99342 -2.393247,-1.49013 -4.018848,-1.49013 -1.941691,0 -3.431826,0.58702 -4.492983,1.71591 -1.083734,1.15147 -1.603024,2.61902 -1.603024,4.38009 0,1.85138 0.564445,3.31894 1.738491,4.42525 1.151468,1.10631 2.686758,1.64818 4.605871,1.64818 2.122314,0 3.793071,-0.76764 5.057428,-2.34809 z m -3.454403,-4.89938 c 1.264356,0 2.054579,0.51929 2.325513,1.53529 H 88.06106 c 0.406401,-1.016 1.219202,-1.53529 2.483559,-1.53529 z"
         id="text36"
         style="font-size:22.5778px;font-family:Stem-Bold;-inkscape-font-specification:'Stem-Bold, Normal';fill:#00ff00;fill-opacity:1;stroke-width:0.264583"
         aria-label="one"
         clip-path="url(#clipPath283)"
         inkscape:label="text36"
         inkscape:original-d="m 57.897124,148.26956 c 0,1.76107 0.587023,3.22863 1.806224,4.35752 1.196624,1.15147 2.709336,1.71591 4.538138,1.71591 1.85138,0 3.38667,-0.56444 4.583294,-1.71591 1.196623,-1.12889 1.806224,-2.59645 1.806224,-4.35752 0,-1.76107 -0.609601,-3.22862 -1.806224,-4.38009 -1.196624,-1.12889 -2.731914,-1.71591 -4.583294,-1.71591 -1.873957,0 -3.409248,0.58702 -4.583293,1.71591 -1.174046,1.15147 -1.761069,2.61902 -1.761069,4.38009 z m 3.38667,0 c 0,-0.94826 0.270934,-1.69333 0.835379,-2.2352 0.541867,-0.54187 1.264357,-0.8128 2.122313,-0.8128 0.857957,0 1.557868,0.29351 2.144891,0.83538 0.564445,0.54187 0.857957,1.28693 0.857957,2.21262 0,0.94827 -0.293512,1.67076 -0.835379,2.21263 -0.541867,0.54186 -1.264357,0.8128 -2.167469,0.8128 -0.880534,0 -1.603024,-0.27094 -2.144891,-0.85796 -0.541867,-0.56444 -0.812801,-1.28693 -0.812801,-2.16747 z m 10.814769,5.89281 h 3.273781 v -7.36036 c 0.4064,-1.03858 1.174045,-1.55787 2.25778,-1.55787 0.790223,0 1.377246,0.2032 1.73849,0.58702 0.361245,0.38382 0.564445,1.03858 0.564445,1.94169 v 6.38952 h 3.273781 v -6.59272 c 0,-1.85138 -0.4064,-3.20605 -1.174045,-4.064 -0.767645,-0.85796 -1.919113,-1.30952 -3.454404,-1.30952 -1.557868,0 -2.619025,0.36125 -3.206047,1.06116 v -0.83538 h -3.273781 z m 21.900459,-4.15432 c -0.338667,0.4064 -0.790223,0.72249 -1.33209,0.94827 -0.564445,0.22578 -1.12889,0.33867 -1.715913,0.33867 -1.670757,0 -2.664181,-0.6096 -2.957692,-1.8288 h 8.082853 c 0.112889,-0.76765 0.180622,-1.39983 0.180622,-1.89654 0,-1.60302 -0.541867,-2.91254 -1.580446,-3.90596 -1.061157,-0.99342 -2.393247,-1.49013 -4.018848,-1.49013 -1.941691,0 -3.431826,0.58702 -4.492983,1.71591 -1.083734,1.15147 -1.603024,2.61902 -1.603024,4.38009 0,1.85138 0.564445,3.31894 1.738491,4.42525 1.151468,1.10631 2.686758,1.64818 4.605871,1.64818 2.122314,0 3.793071,-0.76764 5.057428,-2.34809 z m -3.454403,-4.89938 c 1.264356,0 2.054579,0.51929 2.325513,1.53529 H 88.06106 c 0.406401,-1.016 1.219202,-1.53529 2.483559,-1.53529 z"
         inkscape:path-effect="#path-effect191;#path-effect288"
         transform="translate(-43.479785,-108.07116)" />
      <path
         id="path263"
         style="font-variation-settings:normal;opacity:1;vector-effect:none;fill:#00ff00;fill-opacity:1;stroke:none;stroke-width:0.264583;stroke-linecap:butt;stroke-linejoin:miter;stroke-miterlimit:4;stroke-dasharray:none;stroke-dashoffset:0;stroke-opacity:1;-inkscape-stroke:none;stop-color:#000000;stop-opacity:1"
         d="m 54.548262,120.18973 c 0.09371,0.0689 0.281123,0.20671 0.358292,0.34727 0.07717,0.14056 0.0441,0.28387 0.06613,0.35278 0.02203,0.0689 0.09924,0.0634 0.143333,-0.005 0.0441,-0.0689 0.05512,-0.20118 0.06063,-0.35827 0.0055,-0.1571 0.0055,-0.339 -0.107489,-0.452 -0.113001,-0.113 -0.338995,-0.1571 -0.518139,-0.17088 -0.179145,-0.0138 -0.311442,0.003 -0.374829,0.0551 -0.06339,0.0524 -0.05788,0.14056 -2e-6,0.17363 0.05787,0.0331 0.168121,0.011 0.223246,-4e-5 0.05513,-0.011 0.05513,-0.011 0.14883,0.0579 z m -2.442574,8.93038 c 0.07786,-0.18672 0.233578,-0.56017 0.356225,-1.01493 0.122647,-0.45476 0.212216,-0.9908 0.41213,-2.13017 0.199914,-1.13937 0.510156,-2.88198 0.71595,-3.99496 0.205794,-1.11298 0.307133,-1.59629 0.412372,-1.83795 0.105238,-0.24165 0.214371,-0.24165 0.331303,-0.23385 0.116933,0.008 0.241655,0.0234 0.327412,0.0663 0.08576,0.0429 0.132514,0.11303 -0.06627,1.44217 -0.198787,1.32913 -0.643113,3.91714 -1.032884,6.45456 -0.389771,2.53741 -0.724965,5.02408 -0.971555,5.25489 -0.24659,0.2308 -0.404562,-1.79423 -0.48355,-2.80676 -0.07899,-1.01254 -0.07899,-1.01257 -0.0011,-1.19929 z"
         transform="translate(-43.479785,-107.88407)"
         clip-path="url(#clipPath282)"
         inkscape:original-d="m 54.454557,120.12083 c 0.187412,0.1378 0.374827,0.27561 0.562239,0.41341 -0.03307,0.14332 -0.06615,0.28663 -0.09922,0.42995 0.07717,-0.005 0.15434,-0.011 0.231511,-0.0165 0.01103,-0.13229 0.02204,-0.26458 0.03307,-0.39687 0,-0.1819 0,-0.3638 0,-0.5457 -0.226002,-0.0441 -0.451996,-0.0882 -0.677995,-0.1323 -0.132294,0.0165 -0.264583,0.0331 -0.396875,0.0496 0.0055,0.0882 0.01103,0.17639 0.01654,0.26459 0.110244,-0.022 0.220486,-0.0441 0.33073,-0.0662 z m -2.426727,9.186 c 0.155721,-0.37344 0.311438,-0.74689 0.467156,-1.12034 0.08958,-0.53607 0.179144,-1.07211 0.268716,-1.60817 0.310256,-1.74268 0.620499,-3.48529 0.930746,-5.22794 0.101341,-0.48331 0.202679,-0.96662 0.304017,-1.44993 0.109138,0 0.218271,0 0.327406,0 0.12473,0.0156 0.249452,0.0312 0.374177,0.0468 0.04677,0.0702 0.09355,0.14032 0.140316,0.21048 -0.444344,2.58811 -0.888669,5.17612 -1.333005,7.76418 -0.335209,2.48677 -0.670401,4.97344 -1.005602,7.46016 -0.157977,-2.02511 -0.31595,-4.05014 -0.473927,-6.07521 z"
         inkscape:path-effect="#path-effect263;#path-effect287" />
      <path
         style="font-variation-settings:normal;opacity:1;vector-effect:none;fill:#00ff00;fill-opacity:1;stroke:none;stroke-width:0.264583;stroke-linecap:butt;stroke-linejoin:miter;stroke-miterlimit:4;stroke-dasharray:none;stroke-dashoffset:0;stroke-opacity:1;-inkscape-stroke:none;stop-color:#000000;stop-opacity:1"
         d="m 54.480396,120.08571 -0.07235,10e-4 -0.157096,0.008 -0.08785,0.0238 -0.06305,0.16743 0.05374,0.12506 0.3545,0.0455 0.199472,0.0723 0.03721,-0.0155 0.05374,-0.15296 -0.05788,-0.18087 -0.04857,-0.0465 -0.188103,-0.0372 z"
         id="path264"
         clip-path="url(#clipPath281)"
         inkscape:original-d="m 54.480396,120.08571 -0.07235,10e-4 -0.157096,0.008 -0.08785,0.0238 -0.06305,0.16743 0.05374,0.12506 0.3545,0.0455 0.199472,0.0723 0.03721,-0.0155 0.05374,-0.15296 -0.05788,-0.18087 -0.04857,-0.0465 -0.188103,-0.0372 z"
         inkscape:path-effect="#path-effect286"
         transform="translate(-43.479785,-108.07116)" />
      <path
         id="path263-7"
         style="font-variation-settings:normal;display:inline;vector-effect:none;fill:#00ff00;fill-opacity:1;stroke:none;stroke-width:0.264583;stroke-linecap:butt;stroke-linejoin:miter;stroke-miterlimit:4;stroke-dasharray:none;stroke-dashoffset:0;stroke-opacity:1;-inkscape-stroke:none;stop-color:#000000"
         d="m 73.126802,120.13582 c -0.03859,-4.3e-4 -0.08079,0.001 -0.125573,0.005 -0.179145,0.0138 -0.404797,0.058 -0.517798,0.17105 -0.113001,0.113 -0.112999,0.29456 -0.107487,0.45165 0.0055,0.1571 0.01636,0.28974 0.06046,0.35864 0.0441,0.0689 0.121114,0.0741 0.143144,0.005 0.02203,-0.0689 -0.01102,-0.21187 0.06615,-0.35243 0.03956,-0.0721 0.108252,-0.14294 0.178283,-0.20464 -0.01803,-0.29128 0.01695,-0.33299 0.06718,-0.35812 0.08576,-0.0429 0.210696,-0.0583 0.327628,-0.0661 0.0079,-5.3e-4 0.01545,-1.4e-4 0.02325,-5.2e-4 -0.03444,-0.006 -0.07215,-0.009 -0.115239,-0.009 z m 0.115239,0.009 c 0.0581,0.009 0.104514,0.026 0.134358,0.0506 0.06339,0.0524 0.05787,0.14057 0,0.17364 -0.05787,0.0331 -0.168117,0.0105 -0.223242,-5.2e-4 -0.05512,-0.011 -0.05512,-0.0105 -0.148828,0.0584 -0.04567,0.0336 -0.113778,0.084 -0.180351,0.14263 0.01275,0.20605 0.05148,0.5335 0.133842,1.08417 0.198787,1.32914 0.642725,3.91698 1.032496,6.45439 0.125647,0.81797 0.244953,1.62238 0.358117,2.35593 0.09727,0.002 0.196405,0.006 0.299723,0.0155 0.265779,0.0238 0.532196,0.0457 0.798918,0.0553 0.07682,-0.98482 0.07662,-0.99271 -5.17e-4,-1.17771 -0.07786,-0.18672 -0.233403,-0.56017 -0.35605,-1.01493 -0.122647,-0.45476 -0.212465,-0.99073 -0.412378,-2.1301 -0.199914,-1.13937 -0.509925,-2.88212 -0.715719,-3.9951 -0.205794,-1.11298 -0.307139,-1.59648 -0.412378,-1.83813 -0.09815,-0.22538 -0.199901,-0.2394 -0.307991,-0.2341 z"
         clip-path="url(#clipPath280)"
         inkscape:original-d="m 73.126802,120.13582 c -0.03859,-4.3e-4 -0.08079,0.001 -0.125573,0.005 -0.179145,0.0138 -0.404797,0.058 -0.517798,0.17105 -0.113001,0.113 -0.112999,0.29456 -0.107487,0.45165 0.0055,0.1571 0.01636,0.28974 0.06046,0.35864 0.0441,0.0689 0.121114,0.0741 0.143144,0.005 0.02203,-0.0689 -0.01102,-0.21187 0.06615,-0.35243 0.03956,-0.0721 0.108252,-0.14294 0.178283,-0.20464 -0.01803,-0.29128 0.01695,-0.33299 0.06718,-0.35812 0.08576,-0.0429 0.210696,-0.0583 0.327628,-0.0661 0.0079,-5.3e-4 0.01545,-1.4e-4 0.02325,-5.2e-4 -0.03444,-0.006 -0.07215,-0.009 -0.115239,-0.009 z m 0.115239,0.009 c 0.0581,0.009 0.104514,0.026 0.134358,0.0506 0.06339,0.0524 0.05787,0.14057 0,0.17364 -0.05787,0.0331 -0.168117,0.0105 -0.223242,-5.2e-4 -0.05512,-0.011 -0.05512,-0.0105 -0.148828,0.0584 -0.04567,0.0336 -0.113778,0.084 -0.180351,0.14263 0.01275,0.20605 0.05148,0.5335 0.133842,1.08417 0.198787,1.32914 0.642725,3.91698 1.032496,6.45439 0.125647,0.81797 0.244953,1.62238 0.358117,2.35593 0.09727,0.002 0.196405,0.006 0.299723,0.0155 0.265779,0.0238 0.532196,0.0457 0.798918,0.0553 0.07682,-0.98482 0.07662,-0.99271 -5.17e-4,-1.17771 -0.07786,-0.18672 -0.233403,-0.56017 -0.35605,-1.01493 -0.122647,-0.45476 -0.212465,-0.99073 -0.412378,-2.1301 -0.199914,-1.13937 -0.509925,-2.88212 -0.715719,-3.9951 -0.205794,-1.11298 -0.307139,-1.59648 -0.412378,-1.83813 -0.09815,-0.22538 -0.199901,-0.2394 -0.307991,-0.2341 z"
         inkscape:path-effect="#path-effect285"
         transform="translate(-43.479785,-108.07116)" />
      <path
         style="font-variation-settings:normal;display:inline;vector-effect:none;fill:#00ff00;fill-opacity:1;stroke:none;stroke-width:0.264583;stroke-linecap:butt;stroke-linejoin:miter;stroke-miterlimit:4;stroke-dasharray:none;stroke-dashoffset:0;stroke-opacity:1;-inkscape-stroke:none;stop-color:#000000"
         d="m 73.071973,120.13591 0.07235,0.001 0.157096,0.008 0.08785,0.0238 0.06305,0.16743 -0.05374,0.12506 -0.3545,0.0455 -0.199472,0.0723 -0.03721,-0.0155 -0.05374,-0.15296 0.05788,-0.18087 0.04857,-0.0465 0.188103,-0.0372 z"
         id="path264-2"
         clip-path="url(#clipPath279)"
         inkscape:original-d="m 73.071973,120.13591 0.07235,0.001 0.157096,0.008 0.08785,0.0238 0.06305,0.16743 -0.05374,0.12506 -0.3545,0.0455 -0.199472,0.0723 -0.03721,-0.0155 -0.05374,-0.15296 0.05788,-0.18087 0.04857,-0.0465 0.188103,-0.0372 z"
         inkscape:path-effect="#path-effect284"
         transform="translate(-43.479785,-108.07116)" />
    </g>
  </g>
</svg>
